<svg width="121" height="123" viewBox="0 0 121 123" fill="none" xmlns="http://www.w3.org/2000/svg">
<path d="M115.64 122.558H70.5957C67.8275 122.558 65.585 120.318 65.585 117.553V93.2587C65.585 90.4937 67.8275 88.2537 70.5957 88.2537H115.635C118.403 88.2537 120.646 90.4937 120.646 93.2587V117.553C120.646 120.318 118.403 122.558 115.64 122.558Z" fill="#736BE5"/>
<path d="M110.331 122.698H65.2915C62.5233 122.698 60.2808 120.458 60.2808 117.693V93.3988C60.2808 90.6338 62.5233 88.3938 65.2915 88.3938H110.331C113.099 88.3938 115.342 90.6338 115.342 93.3988V117.693C115.342 120.458 113.099 122.698 110.331 122.698Z" fill="#9D99E5"/>
<path d="M90.5468 98.1981H82.0758C76.6665 98.1981 72.2603 93.8012 72.2603 88.3937C72.2603 82.9906 76.6622 78.5894 82.0758 78.5894H90.5468C95.9561 78.5894 100.362 82.9862 100.362 88.3937C100.358 93.8012 95.9561 98.1981 90.5468 98.1981ZM82.0758 82.7675C78.9704 82.7675 76.4432 85.2919 76.4432 88.3937C76.4432 91.4956 78.9704 94.02 82.0758 94.02H90.5468C93.6522 94.02 96.1794 91.4956 96.1794 88.3937C96.1794 85.2919 93.6522 82.7675 90.5468 82.7675H82.0758Z" fill="#9D99E5"/>
<path d="M60.2808 95.2318C60.2808 91.3774 63.4081 88.2537 67.2669 88.2537H111.019C114.877 88.2537 115.578 91.023 115.337 95.2318H60.2808Z" fill="#BDBDFF"/>
<path d="M95.3907 105.487H89.5522V100.578C89.5522 99.6201 88.7725 98.8413 87.8133 98.8413C86.8541 98.8413 86.0745 99.6201 86.0745 100.578V105.487H80.2359C79.2767 105.487 78.4971 106.266 78.4971 107.224C78.4971 108.182 79.2767 108.961 80.2359 108.961H86.0745V115.72C86.0745 116.678 86.8541 117.457 87.8133 117.457C88.7725 117.457 89.5522 116.678 89.5522 115.72V108.961H95.3907C96.3499 108.961 97.1296 108.182 97.1296 107.224C97.1252 106.266 96.3499 105.487 95.3907 105.487Z" fill="white"/>
<g opacity="0.8">
<path d="M111.899 11.8406C110.905 2.1718 93.4196 -0.505693 76.6618 1.47618C59.9039 3.45806 59.2556 7.25555 59.6893 18.6699C59.8294 22.4193 60.8631 25.3899 62.5319 27.7349C61.5026 31.2437 57.3722 31.9656 57.946 32.5168C60.8981 35.3474 66.1016 32.7487 67.3543 32.0574C75.4397 36.7999 88.2556 36.1043 97.5018 34.8006C109.792 33.0681 112.989 22.4412 111.899 11.8406Z" fill="#E2001A"/>
<path d="M78.4399 17.9786C78.4399 18.9586 77.6427 19.7549 76.6616 19.7549C75.6805 19.7549 74.8833 18.9586 74.8833 17.9786C74.8833 16.9986 75.6805 16.2024 76.6616 16.2024C77.6471 16.2068 78.4399 16.9986 78.4399 17.9786Z" fill="white"/>
<path d="M87.2265 17.9786C87.2265 18.9586 86.4293 19.7549 85.4482 19.7549C84.4671 19.7549 83.6699 18.9586 83.6699 17.9786C83.6699 16.9986 84.4671 16.2024 85.4482 16.2024C86.4293 16.2024 87.2265 16.9986 87.2265 17.9786Z" fill="white"/>
<path d="M95.6708 17.9786C95.6708 18.9586 94.8737 19.7549 93.8925 19.7549C92.9114 19.7549 92.1143 18.9586 92.1143 17.9786C92.1143 16.9986 92.9114 16.2024 93.8925 16.2024C94.878 16.2068 95.6708 16.9986 95.6708 17.9786Z" fill="white"/>
</g>
<path d="M31.1884 44.443C31.368 44.1586 38.1745 47.5712 45.822 43.1087C53.4695 38.6462 49.0019 85.638 49.0019 85.638L48.3799 110.029L47.5127 121.806H28.4597L24.5483 84.7368C24.5483 84.7368 28.5298 48.6474 31.1884 44.443Z" fill="#5DCEC1"/>
<path d="M65.5975 51.3774C62.4833 48.7043 48.1607 43.2749 48.1607 43.2749L45.8218 47.4487C45.8218 47.4487 46.5795 99.2093 46.1897 109.871L46.1853 121.806H63.6703L63.7579 94.8518C68.8124 93.5699 72.6975 91.4437 74.8349 89.1074C77.257 86.4561 77.844 84.9643 77.844 81.438C77.844 77.9118 68.7117 54.0505 65.5975 51.3774Z" fill="white"/>
<path d="M29.616 89.9869C29.7824 89.72 29.87 89.5757 29.87 89.5757V43.7432C29.87 43.7432 15.543 49.1725 12.4332 51.8457C9.31903 54.5188 0.269952 79.2332 0.182352 82.755C-0.159288 96.7332 12.0127 114.369 12.0127 114.369C12.0127 114.369 12.4288 114.194 13.1515 113.686C12.915 116.941 12.5121 121.811 12.5121 121.811H31.5037C31.5037 121.811 31.5651 107.325 31.5037 106.664C31.4643 106.266 30.4394 97.245 29.616 89.9869Z" fill="white"/>
<path d="M60.0878 77.5093L56.886 79.4037C56.8115 79.4475 56.7196 79.4475 56.6451 79.4081L53.2638 77.5093C53.1893 77.4656 53.1411 77.3868 53.1411 77.2993V70.2162C53.1411 70.085 53.2462 69.9756 53.382 69.9756H59.9651C60.0965 69.9756 60.2061 70.0806 60.2061 70.2162V77.3037C60.2061 77.3912 60.1623 77.47 60.0878 77.5093Z" fill="#D5E1ED"/>
<path d="M60.0878 77.5094L56.886 79.4037C56.8115 79.4475 56.7196 79.4475 56.6451 79.4081L53.2638 77.5094C53.1893 77.4656 53.1411 77.3869 53.1411 77.2994V71.6469C53.1411 71.5156 53.2462 71.4062 53.382 71.4062H59.9651C60.0965 71.4062 60.2061 71.5113 60.2061 71.6469V77.3037C60.2061 77.3912 60.1623 77.47 60.0878 77.5094Z" fill="#B8DDFF"/>
<g opacity="0.5">
<path d="M46.1899 110.339V87.9437V39.2937C46.1899 39.2937 46.79 40.3962 48.9931 42.6274C51.7482 45.4143 54.1046 49.6231 54.1046 49.6231L49.1333 48.6606L55.5894 55.1487L50.732 83.6693L47.2937 84.1812L49.4706 91.085L46.1899 110.339Z" fill="#8FA7D7"/>
</g>
<g opacity="0.5">
<path d="M27.6842 42.5837C24.9291 45.3706 22.5727 49.5794 22.5727 49.5794L27.544 48.6169L21.0879 55.105L31.5035 108.891L30.4874 39.25C30.4874 39.25 29.8829 40.3525 27.6842 42.5837Z" fill="#8FA7D7"/>
</g>
<path d="M46.1898 107.364L45.1079 38.7468C45.1079 38.7468 46.2248 39.2237 48.428 41.4549C51.183 44.2418 53.0226 49.0718 53.0226 49.0718L48.0513 48.1093L54.5074 54.5974L49.8821 83.9406L47.5125 84.4874L49.247 87.9656L46.1898 107.364Z" fill="white"/>
<path d="M31.4996 106.66V38.7424C31.4996 38.7424 30.3827 39.2193 28.1795 41.4506C25.4245 44.2374 23.5849 49.0674 23.5849 49.0674L28.5562 48.1049L22.1001 54.5931L31.4996 106.66Z" fill="white"/>
<path d="M39.2298 112.203C34.8936 112.203 31.578 111.551 31.5298 111.542V111.144C31.6042 111.157 39.1554 112.649 46.1896 111.127V111.525C43.8069 112.041 41.4111 112.203 39.2298 112.203Z" fill="#38A595"/>
<path d="M38.271 50.7342C34.3553 50.7342 31.5433 49.3692 31.4995 49.3474V48.8661C31.5652 48.9011 38.5031 52.1911 45.2615 48.5686L45.2702 49.0324C42.8087 50.3536 40.426 50.7342 38.271 50.7342Z" fill="#38A595"/>
<path opacity="0.5" d="M6.48975 82.7725C6.48975 82.7725 11.6625 83.7656 14.3518 86.4518C14.3518 86.4518 7.65045 83.105 6.48975 82.7725Z" fill="#8FA7D7"/>
<path d="M20.2035 105.798L21.2897 107.111C21.2897 107.111 19.1085 112.444 16.6864 115.257L14.7197 112.527C14.7154 112.531 17.7376 110.23 20.2035 105.798Z" fill="#FFCCA9"/>
<path opacity="0.5" d="M12.6128 82.7725C12.7355 82.9781 14.4743 84.6318 15.0525 86.2418L12.3237 83.1443L12.6128 82.7725Z" fill="#8FA7D7"/>
<path opacity="0.5" d="M18.1139 64.8394C18.1008 64.59 16.524 85.3931 15.8494 88.1144L21.0835 104.101C21.0835 104.101 18.3198 110.339 13.147 113.686C13.147 113.686 16.4582 113.192 21.6704 106.004C21.6704 106.004 19.0644 113.441 15.3808 116.583C15.3808 116.583 21.1711 113.153 22.8706 102.74L17.4087 88.1188C17.4131 88.11 18.3636 69.4681 18.1139 64.8394Z" fill="#8FA7D7"/>
<path opacity="0.5" d="M63.7539 94.8518L61.2354 95.5781L61.6208 97.8356L63.7539 97.0087V94.8518Z" fill="#8FA7D7"/>
<path opacity="0.5" d="M63.1491 79.2462L61.2351 63.5793L61.8307 79.745C55.4053 82.1818 48.4849 85.0912 48.4849 85.0912C48.4849 85.0912 52.1641 84.1462 56.6755 82.9431C61.1912 81.74 69.5833 77.0325 69.5833 77.0325C67.8707 77.5312 65.5844 78.3362 63.1491 79.2462Z" fill="#8FA7D7"/>
<path opacity="0.1" d="M72.0318 63.9688C72.0318 63.9688 76.0745 74.845 76.1183 81.9019C76.1359 84.5269 74.6335 86.6969 73.5517 87.48C63.0178 95.1275 50.0354 95.3988 50.0354 95.3988C50.0354 95.3988 49.9303 97.1488 49.6807 97.4813C49.6807 97.4813 72.6669 95.9587 77.06 86.0187C77.06 86.0187 78.0587 84.435 77.8309 81.9456C77.4104 77.2556 74.7956 70.6669 72.0318 63.9688Z" fill="#8FA7D7"/>
<path opacity="0.1" d="M8.01828 59.9743C8.18034 59.5586 1.4658 76.6299 1.52712 82.7724C1.64976 95.6699 11.1894 111.945 13.1516 113.682L12.0128 114.364C12.0128 114.364 -0.645363 95.5824 0.182457 82.7505C0.348897 80.2174 0.655498 79.0974 8.01828 59.9743Z" fill="#8FA7D7"/>
<path d="M49.7468 97.3804C50.4914 89.816 48.3145 85.1567 48.5686 85.0429C51.0257 83.9361 57.1358 81.5385 62.0546 79.631L62.2648 68.4923L37.128 67.4773L36.5586 104.564L61.6034 103.545L61.7567 95.451C55.5678 96.8948 49.7468 97.3804 49.7468 97.3804Z" fill="#AE376D"/>
<path d="M53.8158 68.1554L53.8289 67.7048L47.0092 67.3154L46.9961 67.8798L53.8158 68.1554Z" fill="#A1B5BF"/>
<path d="M47.8809 68.628C47.8809 68.7067 47.8152 68.768 47.7407 68.768C47.6619 68.768 47.6006 68.7024 47.6006 68.628C47.6006 68.5492 47.6663 68.488 47.7407 68.488C47.8152 68.4836 47.8809 68.5492 47.8809 68.628Z" fill="#A1B5BF"/>
<path d="M53.2824 68.8558C53.2824 68.9041 53.2428 68.9437 53.1944 68.9437C53.146 68.9437 53.1064 68.9041 53.1064 68.8558C53.1064 68.8074 53.146 68.7678 53.1944 68.7678C53.2428 68.7678 53.2824 68.8074 53.2824 68.8558Z" fill="#A1B5BF"/>
<path d="M49.2953 29.8043C48.5814 32.3811 47.3156 34.3586 46.7637 34.2055C46.7637 34.2055 47.1491 32.5649 47.666 29.9399C48.266 26.8949 48.3492 24.7468 49.5975 24.8605C50.1626 24.913 50.0093 27.223 49.2953 29.8043Z" fill="#F0BA92"/>
<g opacity="0.6">
<path d="M48.3361 28.737C47.6835 31.3313 47.3156 34.3588 46.7637 34.2057C46.7637 34.2057 47.3112 31.8651 47.828 29.2401C48.4281 26.1951 48.3668 25.1407 49.6107 25.2588C49.6107 25.2544 49.1289 25.5826 48.3361 28.737Z" fill="#D88D64"/>
</g>
<path d="M27.4041 29.8042C28.1181 32.3811 29.3094 34.3717 29.8569 34.223C29.8569 34.223 29.2744 32.0967 28.9284 29.8611C28.4509 26.7942 28.3502 24.7467 27.1019 24.8605C26.5369 24.913 26.6902 27.223 27.4041 29.8042Z" fill="#F0BA92"/>
<g opacity="0.6">
<path d="M27.9777 28.4569C28.6304 31.0513 29.3093 34.3763 29.8568 34.2232C29.8568 34.2232 29.2742 31.55 28.7574 28.925C28.1573 25.88 28.2581 25.1582 27.0098 25.2719C27.0098 25.2763 27.1893 25.3025 27.9777 28.4569Z" fill="#D88D64"/>
</g>
<path d="M45.2045 44.7843C45.2045 44.7843 44.2585 47.2737 38.306 47.2737C32.3536 47.2737 31.4995 44.933 31.4995 44.933V37.3687H45.1126L45.2045 44.7843Z" fill="#F0BA92"/>
<g opacity="0.6">
<path d="M45.1169 39.2936C43.8861 41.8574 39.0813 43.8742 38.3016 43.8742C37.5264 43.8742 33.4398 42.3255 31.4951 39.3374V35.3911H45.1082L45.1169 39.2936Z" fill="#D88D64"/>
</g>
<path d="M46.7639 34.2056C44.4951 41.6518 38.3017 41.7743 38.3017 41.7743C38.3017 41.7743 31.758 41.7568 29.8045 34.0262C28.5168 28.925 25.4114 21.1156 29.13 15.3275C31.2368 12.0506 46.5449 10.7425 48.3495 15.3275C50.1584 19.9125 48.0954 29.8393 46.7639 34.2056Z" fill="#FFCCA9"/>
<path d="M41.6304 33.9299C41.8801 34.1399 41.1092 36.8305 38.306 36.8612C35.9277 36.8874 34.7363 34.4462 34.9509 34.083C35.2181 33.6324 36.1642 33.9387 38.2097 33.9387C40.2551 33.9343 41.3589 33.7024 41.6304 33.9299Z" fill="white"/>
<path d="M38.2754 37.0012C36.7555 37.0012 35.643 36.0125 35.1042 35.0806C34.8896 34.7087 34.7057 34.2362 34.8371 34.0131C35.0561 33.6456 35.5641 33.6762 36.4839 33.7331C36.9438 33.7637 37.5132 33.7987 38.214 33.7987C39.0506 33.7987 39.7164 33.7594 40.2551 33.7287C41.0961 33.6806 41.5209 33.6544 41.7224 33.825C41.9151 33.9869 41.7662 34.4725 41.6961 34.6737C41.5604 35.0587 40.7501 36.975 38.3104 37.0012C38.2973 37.0012 38.2841 37.0012 38.2754 37.0012ZM35.6999 33.9737C35.367 33.9737 35.1568 34.0131 35.0736 34.1531C35.0429 34.2187 35.1042 34.5775 35.4284 35.085C35.678 35.47 36.6153 36.7256 38.271 36.7256C38.2841 36.7256 38.2929 36.7256 38.306 36.7256C39.9266 36.7081 40.7632 35.7675 41.1224 35.2119C41.4771 34.6562 41.5691 34.1487 41.5341 34.035C41.3983 33.9475 40.899 33.9737 40.2726 34.0087C39.7295 34.0394 39.0594 34.0787 38.214 34.0787C37.5045 34.0787 36.9307 34.0437 36.4664 34.0131C36.1642 33.9912 35.9102 33.9737 35.6999 33.9737Z" fill="#D3976E"/>
<path d="M38.3146 31.6549C37.9861 31.4187 37.4781 30.8893 37.7715 30.0143C38.0256 29.2618 38.0606 27.8137 38.0606 27.8005L38.3365 27.8049C38.3365 27.8662 38.3015 29.3055 38.0299 30.1018C37.8022 30.7712 38.1438 31.1912 38.4723 31.4274L38.3146 31.6549Z" fill="#D88D64"/>
<path d="M49.0588 87.1518L46.4922 87.5412C43.2159 87.8256 42.0027 85.3056 39.1075 85.6774C36.2123 86.0493 36.5583 87.1999 36.5583 87.1999C34.6399 87.2524 35.1436 89.9037 35.1436 89.9037C34.2369 91.2512 35.1786 92.8087 35.1786 92.8087C34.5172 93.7406 35.3976 95.1537 35.3976 95.1537C35.6429 96.6893 37.5088 97.9581 39.5148 98.1724C39.5805 98.1812 39.6506 98.1856 39.7207 98.1899C39.7908 98.1943 39.8652 98.1987 39.9353 98.2031C40.0098 98.2031 40.0886 98.2031 40.1631 98.2031C40.2682 98.2031 40.3733 98.1987 40.4828 98.1899C40.4916 98.1899 40.4959 98.1899 40.5047 98.1899C40.5091 98.1899 40.5178 98.1899 40.5222 98.1856C40.6142 98.1768 40.7018 98.1724 40.7938 98.1593C43.2159 97.8312 49.8867 95.1318 49.8867 95.1318C49.9918 89.9299 49.0588 87.1518 49.0588 87.1518Z" fill="#FFCCA9"/>
<path d="M36.5629 87.1956C36.5629 87.1956 38.2229 87.5193 39.1252 87.5806C40.0231 87.6418 42.1124 87.9874 42.6029 88.1056C42.6029 88.1056 39.9005 87.8781 39.1077 87.8299C38.4989 87.7949 36.3088 87.2218 36.5629 87.1956Z" fill="#D88D64"/>
<path d="M37.0796 90.6387C37.0796 90.6387 35.8576 90.14 35.5028 89.6543C35.1437 89.1687 35.1305 88.6175 35.1218 88.6525C35.0123 89.1206 35.1481 89.9037 35.1481 89.9037L37.0796 90.6387Z" fill="#D88D64"/>
<path d="M37.1275 93.5306C37.1275 93.5306 35.9668 93.0187 35.4938 92.6425C34.9638 92.2225 34.7755 91.5706 34.7799 91.6056C34.8412 92.2444 35.196 92.7956 35.196 92.7956L37.1275 93.5306Z" fill="#D88D64"/>
<path d="M37.3466 95.8845C37.3466 95.8845 36.1859 95.3726 35.7129 94.9963C35.1829 94.5763 34.9464 93.8457 34.9507 93.8851C35.0121 94.5238 35.415 95.1494 35.415 95.1494L37.3466 95.8845Z" fill="#D88D64"/>
<path d="M36.8036 86.5176C36.8036 86.5176 36.5102 87.1913 37.0402 87.2832L37.1278 87.4057L36.5627 87.1957C36.5627 87.1957 36.5102 86.8107 36.8036 86.5176Z" fill="#D88D64"/>
<g opacity="0.1">
<path d="M27.6145 55.6956L27.7371 48.2712L27.1152 48.3894L26.9925 55.7394C23.6243 56.3169 22.9498 62.2887 22.8359 69.91V69.9144L22.8271 70.3387C22.8271 71.8962 23.655 72.2812 24.7149 72.4475C25.1004 72.5087 25.5033 72.5306 25.88 72.5437C25.9807 72.7669 26.1997 72.9244 26.4582 72.9244C26.8086 72.9244 27.0933 72.64 27.0933 72.29V71.7737C27.0933 71.4237 26.8086 71.1394 26.4582 71.1394C26.1384 71.1394 25.8844 71.38 25.8406 71.6862C24.9952 71.6425 23.9572 71.4631 23.6199 70.8419C23.2914 70.2337 23.4841 68.9431 23.5104 68.0725C23.7338 61.4094 24.4565 56.3475 27.5532 56.3475C30.6454 56.3475 32.0908 61.3962 32.3142 68.0462C32.3405 68.8819 32.4894 70.1069 32.1741 70.7281C31.8894 71.2925 31.1316 71.5419 30.3739 71.6425C30.2907 71.345 30.006 71.1394 29.6862 71.1787C29.3358 71.2225 29.0905 71.5375 29.13 71.8831L29.1913 72.3994C29.2351 72.7494 29.5504 72.9944 29.8965 72.955C30.1593 72.9244 30.3695 72.7319 30.4308 72.4912C31.6441 72.325 33.015 71.7869 32.9712 70.1987L32.9625 69.5731C32.9668 69.5644 32.9668 69.5556 32.9712 69.5425C32.8267 61.7419 31.3068 55.77 27.6145 55.6956Z" fill="#0E3368"/>
<path d="M57.7795 61.6937C57.1531 46.9805 50.3159 43.638 50.0269 43.498C50.0269 43.498 50.4211 43.813 52.138 46.1799C53.9207 48.6474 56.6932 53.0924 57.0699 61.7068C55.5938 61.9124 54.4594 63.1768 54.4594 64.7037C54.4594 66.3793 55.8172 67.7355 57.4948 67.7355C59.1723 67.7355 60.5301 66.3793 60.5301 64.7037C60.5213 63.1374 59.3168 61.8424 57.7795 61.6937Z" fill="#0E3368"/>
<path d="M61.7215 95.4469L61.5989 103.602L38.893 104.468L38.8579 107.334L63.1538 106.306V95.0925L61.7215 95.4469Z" fill="#0E3368"/>
</g>
<path d="M32.1172 68.7636C31.9639 60.9236 30.7901 54.9736 27.0408 54.9736C23.2302 54.9736 22.0914 61.1205 21.9731 69.1399V69.1443L21.9644 69.5686C21.9644 71.1261 22.7922 71.5111 23.8521 71.6774C24.2376 71.7386 24.6405 71.7605 25.0172 71.7736C25.118 71.9968 25.337 72.1543 25.5954 72.1543C25.9458 72.1543 26.2305 71.8699 26.2305 71.5199V71.0036C26.2305 70.6536 25.9458 70.3693 25.5954 70.3693C25.2756 70.3693 25.0216 70.6099 24.9778 70.9161C24.1325 70.8724 23.0944 70.693 22.7571 70.0718C22.4286 69.4636 22.6214 68.173 22.6476 67.3024C22.871 60.6393 23.9573 55.6299 27.0495 55.6299C30.1418 55.6299 31.2237 60.6261 31.4514 67.2761C31.4777 68.1118 31.6266 69.3368 31.3113 69.958C31.0266 70.5224 30.2688 70.7718 29.5111 70.8724C29.4279 70.5749 29.1432 70.3693 28.8234 70.4086C28.473 70.4524 28.2278 70.7674 28.2672 71.113L28.3285 71.6293C28.3723 71.9793 28.6877 72.2243 29.0337 72.1849C29.2965 72.1543 29.5067 71.9618 29.568 71.7211C30.7813 71.5549 32.1522 71.0168 32.1084 69.4286L32.0997 68.803C32.1128 68.7811 32.1172 68.7724 32.1172 68.7636Z" fill="#383F47"/>
<path d="M27.1107 55.2973H26.4888V48.5073L27.1107 48.3892V55.2973Z" fill="#383F47"/>
<path d="M55.4932 59.9742C55.1735 51.1586 52.3571 46.6436 50.5482 44.1455C48.8356 41.7743 48.437 41.4636 48.437 41.4636C48.7305 41.5992 55.6596 44.9811 56.2071 59.948L55.4932 59.9742Z" fill="#383F47"/>
<path d="M55.8917 60.1404C55.4099 50.9748 53.2199 46.9629 51.4154 44.4648C49.7028 42.0936 48.4282 41.4504 48.4282 41.4504C48.7217 41.5861 55.6596 45.2479 56.2071 60.2192L55.8917 60.1404Z" fill="#1A2026"/>
<path d="M58.9359 62.6691C58.9359 64.3447 57.5781 65.701 55.9006 65.701C54.223 65.701 52.8652 64.3447 52.8652 62.6691C52.8652 60.9935 54.223 59.6372 55.9006 59.6372C57.5781 59.6372 58.9359 60.9978 58.9359 62.6691Z" fill="#BCBCBC"/>
<path d="M55.9008 65.7886C54.1794 65.7886 52.7778 64.3886 52.7778 62.6692C52.7778 60.9498 54.1794 59.5498 55.9008 59.5498C57.6221 59.5498 59.0237 60.9498 59.0237 62.6692C59.0237 64.3929 57.6221 65.7886 55.9008 65.7886ZM55.9008 59.7292C54.2758 59.7292 52.953 61.0504 52.953 62.6736C52.953 64.2967 54.2758 65.6179 55.9008 65.6179C57.5257 65.6179 58.8485 64.2967 58.8485 62.6736C58.8485 61.0504 57.5257 59.7292 55.9008 59.7292Z" fill="#444444"/>
<g opacity="0.3">
<path d="M57.4071 65.4124L56.6406 63.8024L57.1838 62.3193L58.8569 61.6018C58.8525 61.6062 59.8336 63.7499 57.4071 65.4124Z" fill="white"/>
</g>
<path d="M57.2629 62.8923C57.2629 63.6842 56.6541 64.3229 55.9007 64.3229C55.1474 64.3229 54.5386 63.6842 54.5386 62.8923C54.5386 62.1004 55.1474 61.4617 55.9007 61.4617C56.6541 61.4617 57.2629 62.1004 57.2629 62.8923Z" fill="#635B53"/>
<g opacity="0.4">
<path d="M55.4231 59.5322L55.5895 61.3697L54.569 62.5729L52.7513 62.6647C52.7513 62.6691 52.5717 60.2585 55.4231 59.5322Z" fill="white"/>
</g>
<path d="M57.1135 62.6692C57.1135 63.3385 56.5704 63.881 55.9003 63.881C55.2301 63.881 54.687 63.3385 54.687 62.6692C54.687 61.9998 55.2301 61.4573 55.9003 61.4573C56.5704 61.4573 57.1135 62.0042 57.1135 62.6692Z" fill="#D3D3D3"/>
<path d="M55.9005 63.9686C55.1821 63.9686 54.5996 63.3867 54.5996 62.6692C54.5996 61.9517 55.1821 61.3699 55.9005 61.3699C56.6188 61.3699 57.2013 61.9517 57.2013 62.6692C57.2013 63.3867 56.6188 63.9686 55.9005 63.9686ZM55.9005 61.5492C55.2785 61.5492 54.7748 62.0524 54.7748 62.6736C54.7748 63.2949 55.2785 63.798 55.9005 63.798C56.5224 63.798 57.0261 63.2949 57.0261 62.6736C57.0261 62.0524 56.5224 61.5492 55.9005 61.5492Z" fill="#A8A6A0"/>
<path d="M56.3738 62.8135C56.3738 63.076 56.1592 63.2904 55.8964 63.2904C55.6336 63.2904 55.4189 63.076 55.4189 62.8135C55.4189 62.551 55.6336 62.3367 55.8964 62.3367C56.1635 62.3367 56.3738 62.551 56.3738 62.8135Z" fill="#BABABA"/>
<path d="M55.9008 63.1461C56.1644 63.1461 56.3782 62.9326 56.3782 62.6693C56.3782 62.4059 56.1644 62.1924 55.9008 62.1924C55.6371 62.1924 55.4233 62.4059 55.4233 62.6693C55.4233 62.9326 55.6371 63.1461 55.9008 63.1461Z" fill="white"/>
<path d="M25.5209 71.8524H25.3895C25.28 71.8524 25.1924 71.7649 25.1924 71.6555V70.8199C25.1924 70.7105 25.28 70.623 25.3895 70.623H25.5209C25.6304 70.623 25.718 70.7105 25.718 70.8199V71.6555C25.718 71.7649 25.6304 71.8524 25.5209 71.8524Z" fill="#AAA9A2"/>
<path d="M29.0818 71.8436L28.9504 71.8567C28.8409 71.8655 28.7489 71.7867 28.7358 71.6817L28.6569 70.8505C28.6482 70.7411 28.727 70.6492 28.8321 70.6361L28.9635 70.623C29.073 70.6142 29.165 70.693 29.1781 70.798L29.257 71.6292C29.2657 71.7386 29.1869 71.8349 29.0818 71.8436Z" fill="#AAA9A2"/>
<g opacity="0.4">
<path d="M55.5898 61.6323C54.8846 61.8642 54.8408 62.5117 54.8408 62.5117L55.5241 62.5598L55.7037 62.3804L55.5898 61.6323Z" fill="white"/>
</g>
<g opacity="0.4">
<path d="M56.5486 63.5616C57.1268 63.1022 56.9472 62.481 56.9472 62.481L56.2902 62.6691L56.1851 62.901L56.5486 63.5616Z" fill="white"/>
</g>
<path d="M28.4335 29.0298C28.4335 29.0298 27.1239 23.8498 26.8918 21.2336C26.6596 18.6173 26.3837 15.1042 29.3358 13.9055C32.2879 12.7111 31.3813 16.3598 31.3813 16.3598C31.3813 16.3598 29.0467 17.9261 28.5781 21.8548C28.324 23.9898 28.4335 29.0298 28.4335 29.0298Z" fill="#2A445D"/>
<path d="M48.0561 28.9511C48.0561 28.9511 49.5102 23.8498 49.7424 21.2336C49.9745 18.6173 50.2504 15.1042 47.2983 13.9055C44.3462 12.7111 45.2529 16.3598 45.2529 16.3598C45.2529 16.3598 47.5874 17.9261 48.0561 21.8548C48.3101 23.9898 48.0561 28.9511 48.0561 28.9511Z" fill="#2A445D"/>
<path d="M45.6424 17.6199C45.6424 17.6199 42.0464 18.193 39.6374 17.0599C38.9322 16.7274 35.5071 18.1843 33.9347 17.8911C30.9212 17.3268 29.5985 14.8768 29.5371 14.6274C29.3619 13.888 28.6436 12.838 30.8205 11.2061C33.8339 8.94864 37.5525 9.49551 38.1745 8.83489C38.7965 8.17426 39.4228 7.77176 40.6273 7.88989C43.8554 8.21364 44.013 10.1036 45.8307 10.388C48.1959 10.7555 48.9931 11.7093 49.1464 13.6911C49.4355 17.4668 45.6424 17.6199 45.6424 17.6199Z" fill="#2A445D"/>
<path d="M38.7967 8.33179C38.7967 8.33179 37.7849 9.05804 35.2445 12.0112C32.7041 14.9643 31.3814 14.7849 31.0967 14.833C31.0967 14.833 33.2911 15.2093 35.6081 12.1643C37.9251 9.11928 38.7967 8.33179 38.7967 8.33179Z" fill="#1F384C"/>
<path d="M42.7822 17.5236C42.7822 17.5236 47.0221 18.0224 48.8704 15.813C48.8704 15.813 48.4806 18.1274 42.8786 17.563L42.7822 17.5236Z" fill="#1F384C"/>
<path d="M35.8097 17.5849C30.8121 18.2849 29.3754 14.1637 29.4017 14.238C30.1901 16.7362 32.1786 17.6987 33.6328 18.0749C34.0708 18.193 34.5044 18.2674 34.9337 18.298C35.1702 18.3155 35.3147 18.3155 35.3147 18.3155C35.3147 18.3155 35.3191 18.3155 35.3235 18.3112C40.1021 18.3549 43.9696 13.3062 43.9696 13.3062C40.7284 16.093 37.8507 17.1824 35.8097 17.5849Z" fill="#1F384C"/>
<path d="M35.2974 29.0954L36.9486 27.446V29.0954H35.2974Z" fill="white"/>
<path d="M33.1729 29.0955L32.3057 28.2293V26.1074L33.9569 24.4624H36.0812L36.9485 25.3243V27.4462L35.2972 29.0955H33.1729Z" fill="white"/>
<path d="M33.9569 24.4624L32.3057 26.1074V24.4624H33.9569Z" fill="white"/>
<path d="M42.8311 29.2397L44.4823 27.5903V29.2397H42.8311Z" fill="white"/>
<path d="M40.711 29.2398L39.8438 28.3779V26.2561L41.495 24.6067H43.6193L44.4822 25.4729V27.5904L42.8309 29.2398H40.711Z" fill="white"/>
<path d="M41.495 24.6067L39.8438 26.2561V24.6067H41.495Z" fill="white"/>
<path d="M44.3376 23.828C43.7287 23.408 43.0323 23.2198 42.2877 23.3292C41.9724 23.3773 41.7139 23.0798 41.784 22.7692C41.8191 22.6161 41.9329 22.4848 42.0819 22.4367C43.1112 22.1173 44.1448 22.288 44.9376 23.1061C45.0427 23.2155 45.0778 23.373 45.0427 23.5217L45.034 23.5523C44.9639 23.863 44.6004 24.0073 44.3376 23.828Z" fill="#2A445D"/>
<path d="M42.1652 27.5774C42.4603 27.5774 42.6996 27.2738 42.6996 26.8993C42.6996 26.5248 42.4603 26.2212 42.1652 26.2212C41.8701 26.2212 41.6309 26.5248 41.6309 26.8993C41.6309 27.2738 41.8701 27.5774 42.1652 27.5774Z" fill="#210601"/>
<path d="M34.6271 26.1643C34.3337 26.1643 34.0928 26.4706 34.0928 26.8424C34.0928 27.2187 34.3337 27.5206 34.6271 27.5206C34.9206 27.5206 35.1615 27.2143 35.1615 26.8424C35.1615 26.4706 34.9206 26.1643 34.6271 26.1643Z" fill="#210601"/>
<path d="M44.3067 26.2078C44.0133 25.3022 43.1679 24.6416 42.1693 24.6416C41.0436 24.6416 40.1151 25.4728 39.9443 26.5535C39.9443 26.5535 39.9443 26.5535 39.9399 26.5535C39.5457 26.1072 38.9763 25.8185 38.3368 25.8185C37.7543 25.8185 37.2331 26.0547 36.8432 26.431C36.6505 25.381 35.7307 24.5847 34.6269 24.5847C33.6239 24.5847 32.783 25.2453 32.4895 26.151C28.7359 24.821 27.8117 24.646 27.562 24.6941C27.4876 24.7072 27.4262 24.821 27.4131 24.8822L27.6058 24.961C27.6058 24.961 27.6409 24.9128 27.6452 24.9128C27.9694 24.8735 30.3039 25.6347 32.4194 26.3828C32.3888 26.5316 32.3712 26.6891 32.3712 26.8466C32.3712 28.0891 33.383 29.1041 34.6313 29.1041C35.4679 29.1041 36.1906 28.6447 36.5804 27.9666C36.6461 27.9578 36.7162 27.9316 36.7732 27.901C36.8389 27.8703 36.9002 27.8222 36.9483 27.7697C37.0447 27.6647 37.106 27.5291 37.1236 27.3891C37.1717 27.0391 37.0929 26.781 36.9922 26.6322C37.3382 26.2822 37.8112 26.0635 38.3412 26.0635C38.9194 26.0635 39.4318 26.326 39.7822 26.7328C39.6946 26.886 39.6333 27.1266 39.6771 27.446C39.6946 27.586 39.7559 27.7216 39.8523 27.8266C39.9005 27.8791 39.9618 27.9228 40.0275 27.9578C40.0844 27.9841 40.1545 28.0147 40.2202 28.0235C40.61 28.7016 41.3327 29.161 42.1693 29.161C43.4132 29.161 44.4294 28.1503 44.4294 26.9035C44.4294 26.746 44.4119 26.5885 44.3812 26.4397C46.5274 25.6785 48.8576 24.9085 49.1247 24.9697C49.116 24.9653 49.3657 24.8691 49.3657 24.8691C49.2868 24.7072 49.1817 24.4797 44.3067 26.2078ZM34.6269 28.8635C33.5144 28.8635 32.6078 27.9578 32.6078 26.8466C32.6078 25.7353 33.5144 24.8297 34.6269 24.8297C35.7395 24.8297 36.6461 25.7353 36.6461 26.8466C36.6461 27.9578 35.7395 28.8635 34.6269 28.8635ZM36.8783 27.4985C36.8564 27.5466 36.8257 27.5947 36.7819 27.6297C36.7644 27.6428 36.7425 27.6516 36.725 27.6647C36.817 27.4285 36.8695 27.1747 36.8783 26.9122C36.9002 26.956 36.9177 26.9953 36.9264 27.0435C36.9483 27.1922 36.9308 27.3585 36.8783 27.4985ZM40.01 27.6866C39.9662 27.6472 39.9355 27.6035 39.9136 27.5553C39.861 27.4153 39.8435 27.2447 39.8654 27.1003C39.8742 27.0522 39.8917 27.0085 39.9136 26.9691C39.9224 27.236 39.9749 27.4897 40.0669 27.7216C40.0494 27.7085 40.0275 27.6997 40.01 27.6866ZM42.1649 28.916C41.0524 28.916 40.1457 28.0103 40.1457 26.8991C40.1457 25.7878 41.0524 24.8822 42.1649 24.8822C43.2774 24.8822 44.1841 25.7878 44.1841 26.8991C44.1885 28.0103 43.2818 28.916 42.1649 28.916Z" fill="#302420"/>
<path d="M32.4546 23.7711C33.0635 23.3511 33.7599 23.1629 34.5045 23.2723C34.8198 23.3204 35.0783 23.0229 35.0082 22.7123C34.9731 22.5592 34.8593 22.4279 34.7103 22.3798C33.681 22.0604 32.6474 22.2311 31.8546 23.0492C31.7495 23.1586 31.7144 23.3161 31.7495 23.4648L31.7582 23.4954C31.8283 23.8061 32.1918 23.9548 32.4546 23.7711Z" fill="#2A445D"/>
<path d="M22.5644 69.0522C22.5644 69.0522 21.9731 57.0822 26.0202 55.5291C26.9444 55.1747 27.8117 55.3891 28.4468 55.7216C30.5886 56.8503 31.1229 60.9453 31.285 62.8091C31.4996 65.2197 31.8281 68.7241 31.3989 69.7041C31.3989 69.7041 31.5478 64.1391 30.6149 60.0747C29.6819 56.0147 27.9212 55.5684 26.7955 55.6297C25.6698 55.6909 24.3602 56.9509 23.6331 59.4141C22.9061 61.8772 22.5644 69.0522 22.5644 69.0522Z" fill="#1A2026"/>
<path d="M21.9819 69.9361C21.9819 69.8923 22.2623 70.9948 23.3397 71.2398C24.4172 71.4892 24.9779 70.9073 24.9779 70.9073C24.9779 70.9073 24.9034 71.5942 25.0173 71.7692C25.0173 71.7692 22.0783 72.0886 21.9819 69.9361Z" fill="#1A2026"/>
<path d="M32.113 69.1179C32.113 69.0917 32.1568 69.6079 31.9421 70.0367C31.5655 70.7892 31.2282 70.8242 30.8296 71.0342C29.8529 71.5504 29.5112 70.8592 29.5112 70.8592C29.5112 70.8592 29.6426 71.511 29.5769 71.7035C29.5769 71.7079 32.332 71.6204 32.113 69.1179Z" fill="#1A2026"/>
<path d="M26.4888 48.5073L27.1107 48.3892L27.0713 48.7042L26.4888 48.8179V48.5073Z" fill="#1A2026"/>
</svg>
