<svg width="16" height="16" viewBox="0 0 16 16" fill="none" xmlns="http://www.w3.org/2000/svg">
<g clip-path="url(#clip0_19_269)">
<path d="M0.293031 0.292959C0.480558 0.105488 0.734866 0.000172654 1.00003 0.000172654C1.26519 0.000172654 1.5195 0.105488 1.70703 0.292959L8.00003 6.58596L14.293 0.292959C14.3853 0.197449 14.4956 0.121267 14.6176 0.0688577C14.7396 0.0164487 14.8709 -0.0111375 15.0036 -0.0122913C15.1364 -0.0134452 15.2681 0.0118565 15.391 0.0621374C15.5139 0.112418 15.6255 0.186671 15.7194 0.280564C15.8133 0.374457 15.8876 0.486109 15.9379 0.609005C15.9881 0.731901 16.0134 0.863581 16.0123 0.99636C16.0111 1.12914 15.9835 1.26036 15.9311 1.38236C15.8787 1.50437 15.8025 1.61471 15.707 1.70696L9.41403 7.99996L15.707 14.293C15.8892 14.4816 15.99 14.7342 15.9877 14.9964C15.9854 15.2586 15.8803 15.5094 15.6948 15.6948C15.5094 15.8802 15.2586 15.9854 14.9964 15.9876C14.7342 15.9899 14.4816 15.8891 14.293 15.707L8.00003 9.41396L1.70703 15.707C1.51843 15.8891 1.26583 15.9899 1.00363 15.9876C0.741433 15.9854 0.49062 15.8802 0.305212 15.6948C0.119804 15.5094 0.014635 15.2586 0.0123566 14.9964C0.0100781 14.7342 0.110873 14.4816 0.293031 14.293L6.58603 7.99996L0.293031 1.70696C0.10556 1.51943 0.000244141 1.26512 0.000244141 0.999959C0.000244141 0.734795 0.10556 0.480487 0.293031 0.292959V0.292959Z" fill="white"/>
</g>
<defs>
<clipPath id="clip0_19_269">
<rect width="16" height="16" fill="white"/>
</clipPath>
</defs>
</svg>
